<?xml version="1.0" standalone="no"?>
<!DOCTYPE svg PUBLIC "-//W3C//DTD SVG 20010904//EN"
 "http://www.w3.org/TR/2001/REC-SVG-20010904/DTD/svg10.dtd">
<svg version="1.0" xmlns="http://www.w3.org/2000/svg"
 width="840.000000pt" height="447.000000pt" viewBox="0 0 840.000000 447.000000"
 preserveAspectRatio="xMidYMid meet">

<g transform="translate(0.000000,447.000000) scale(0.100000,-0.100000)"
fill="#000000" stroke="none">
<path d="M2153 3899 c-109 -37 -153 -71 -218 -169 -65 -97 -84 -192 -60 -288
27 -111 69 -186 133 -238 68 -56 88 -66 177 -93 l70 -21 1960 3 c1078 1 1976
6 1995 10 19 5 63 21 96 38 72 34 162 129 196 206 47 105 29 295 -37 394 -48
73 -169 156 -255 175 -19 5 -919 9 -2000 11 l-1965 3 -92 -31z m4069 -66 c26
-12 66 -41 90 -65 155 -154 120 -402 -72 -507 l-65 -36 -2005 0 -2005 0 -50
24 c-258 127 -240 500 28 593 49 17 152 17 2042 15 l1990 -2 47 -22z"/>
<path d="M2309 2646 c-2 -2 -36 -6 -76 -8 -103 -7 -184 -49 -257 -132 -73 -83
-98 -141 -104 -239 -5 -90 15 -185 55 -255 14 -24 56 -68 98 -101 69 -55 96
-69 170 -88 17 -4 913 -9 1992 -10 l1963 -3 97 32 c83 27 105 39 145 79 74 74
117 150 135 235 14 69 14 81 -1 142 -45 179 -131 274 -298 327 l-79 25 -1918
0 c-1055 0 -1920 -2 -1922 -4z m3913 -93 c26 -12 66 -41 90 -65 155 -154 120
-402 -72 -507 l-65 -36 -2005 0 -2005 0 -50 24 c-258 127 -240 500 28 593 49
17 152 17 2042 15 l1990 -2 47 -22z"/>
<path d="M2319 1366 c-2 -2 -38 -6 -79 -8 -95 -6 -167 -37 -242 -107 -60 -56
-103 -126 -115 -187 -5 -21 -8 -82 -8 -134 1 -81 5 -103 27 -153 51 -109 174
-209 288 -234 19 -4 917 -9 1995 -10 l1960 -4 82 26 c237 74 367 321 279 534
-54 133 -141 212 -281 257 l-76 24 -1913 0 c-1052 0 -1915 -2 -1917 -4z m3903
-93 c60 -27 127 -94 158 -158 20 -41 25 -65 25 -135 0 -78 -3 -90 -34 -148
-38 -70 -69 -100 -145 -140 l-51 -27 -2005 0 -2005 0 -50 24 c-258 127 -240
500 28 593 49 17 152 17 2042 15 l1990 -2 47 -22z"/>
</g>
</svg>
