<?xml version="1.0" standalone="no"?>
<!DOCTYPE svg PUBLIC "-//W3C//DTD SVG 20010904//EN"
 "http://www.w3.org/TR/2001/REC-SVG-20010904/DTD/svg10.dtd">
<svg version="1.0" xmlns="http://www.w3.org/2000/svg"
 width="423.000000pt" height="430.000000pt" viewBox="0 0 423.000000 430.000000"
 preserveAspectRatio="xMidYMid meet">

<g transform="translate(0.000000,430.000000) scale(0.100000,-0.100000)"
fill="#000000" stroke="none">
<path d="M3144 4282 c-62 -22 -93 -45 -155 -120 -27 -31 -60 -70 -74 -85 -14
-15 -25 -37 -25 -48 0 -11 -8 -31 -17 -45 -14 -21 -15 -33 -6 -66 12 -43 -6
-119 -41 -170 -32 -48 -38 -98 -15 -130 11 -16 24 -26 29 -23 4 2 25 -7 45
-21 21 -14 55 -32 77 -41 33 -13 58 -38 58 -57 0 -4 -24 -3 -53 0 -59 7 -157
-10 -169 -29 -4 -7 -8 -30 -8 -51 0 -22 -5 -55 -12 -73 -11 -30 -10 -36 10
-56 20 -20 32 -22 107 -21 81 1 85 1 85 -20 0 -49 -15 -54 -160 -56 -74 -1
-147 1 -161 5 -24 6 -28 3 -37 -27 -13 -45 -14 -100 -3 -131 10 -25 -6 -153
-25 -201 -5 -14 -3 -17 7 -14 15 5 48 131 49 185 0 17 -4 35 -10 38 -19 12
-10 22 15 17 39 -7 50 -37 27 -70 -26 -36 -39 -152 -18 -152 17 0 21 13 31 85
4 28 13 60 21 72 7 12 11 29 8 37 -3 9 -4 16 0 16 3 0 15 -31 27 -69 11 -39
27 -75 35 -82 8 -6 14 -20 14 -29 0 -13 10 -21 33 -25 17 -4 64 -22 104 -41
39 -19 77 -34 84 -34 7 0 9 -3 6 -7 -4 -3 2 -17 14 -29 l21 -22 45 19 c70 30
85 7 32 -47 l-31 -32 27 -56 c25 -52 42 -66 59 -49 3 4 -6 17 -21 29 -25 20
-26 24 -15 46 18 33 85 34 103 0 11 -19 9 -26 -11 -47 l-23 -24 47 -21 c41
-17 53 -18 94 -8 26 7 48 13 50 14 2 1 -4 16 -13 34 -9 18 -19 30 -22 27 -2
-3 3 -18 12 -34 l17 -28 -19 25 c-10 13 -29 38 -43 55 -46 55 -53 71 -12 25
23 -25 42 -40 42 -33 0 15 -69 79 -82 75 -14 -4 -48 27 -48 44 0 27 24 25 95
-10 113 -55 213 -45 247 24 14 28 17 31 18 13 1 -68 -48 -103 -144 -103 -58 0
-69 -10 -55 -47 5 -13 20 -24 40 -28 27 -6 29 -9 16 -17 -25 -13 -21 -25 15
-42 39 -20 68 -20 96 0 12 8 22 13 22 9 0 -3 -13 -13 -29 -23 l-30 -18 24 -30
23 -29 7 30 c3 17 11 39 18 50 19 34 25 134 15 256 -10 110 -9 119 10 145 12
16 26 48 32 72 6 23 14 42 18 42 14 0 30 -38 37 -86 10 -71 64 -315 75 -341 5
-13 15 -23 21 -23 15 0 3 81 -13 91 -6 4 -7 12 -4 18 4 6 3 11 -2 11 -10 0
-34 119 -26 132 9 14 -27 172 -43 190 -19 22 -5 43 33 51 20 4 24 1 18 -12
-16 -39 -14 -65 15 -187 16 -71 35 -165 41 -209 14 -100 20 -121 29 -106 11
17 -5 126 -39 272 -32 135 -35 164 -24 250 4 36 2 70 -6 94 -11 33 -15 36 -39
30 -34 -9 -52 -9 -208 -7 l-133 2 0 30 c0 60 -53 120 -105 120 -14 0 -13 6 7
43 19 34 28 41 48 39 14 -2 57 -4 96 -5 59 -1 77 3 116 26 118 69 189 218 189
398 0 96 -11 150 -47 221 -89 175 -397 303 -580 240z m240 -18 c86 -22 188
-78 252 -139 66 -62 69 -90 15 -157 -12 -15 -15 -15 -38 10 l-25 27 25 -35
c23 -33 24 -38 11 -63 -10 -19 -23 -27 -42 -28 -15 0 -21 -3 -14 -6 25 -10 63
8 74 35 6 15 11 30 10 34 -1 4 9 24 23 44 l25 36 11 -28 c49 -124 50 -186 6
-320 -61 -182 -112 -244 -210 -252 l-54 -4 -22 44 c-12 25 -19 53 -15 62 9 23
-4 66 -21 66 -7 0 -17 9 -20 21 -10 30 -59 48 -104 38 -57 -13 -61 -12 -81 35
-19 45 -59 76 -97 76 -11 0 -4 -7 17 -18 38 -19 41 -31 18 -95 -10 -28 -18
-37 -30 -33 -14 3 -17 -1 -12 -19 7 -29 -7 -38 -32 -21 -18 14 -18 15 1 37 11
12 15 19 8 15 -8 -4 -15 2 -19 19 l-6 26 -34 -38 c-26 -29 -34 -33 -34 -20 0
26 19 59 31 52 5 -4 9 -1 9 4 0 12 -12 15 -44 11 -14 -1 -17 3 -12 16 5 14 4
15 -8 5 -11 -9 -15 -8 -20 4 -9 25 -33 17 -46 -15 -13 -31 -24 -37 -35 -20 -4
6 -11 7 -17 4 -6 -4 -5 3 2 16 6 12 9 24 6 27 -3 3 6 19 19 35 14 16 25 37 25
46 0 9 7 25 14 35 12 16 14 16 20 2 3 -9 2 -13 -4 -10 -6 3 -10 -5 -10 -19 0
-32 19 -44 35 -22 11 15 13 15 18 -5 3 -12 11 -19 19 -17 17 6 16 112 -2 133
-7 9 -10 18 -6 22 11 12 26 -12 36 -58 l9 -44 -4 48 c-3 31 1 60 10 80 15 30
15 31 -1 10 -29 -40 -34 -25 -7 22 17 31 21 45 12 43 -8 -2 -14 4 -14 12 -1
24 -15 40 -30 33 -23 -8 -18 9 10 40 31 33 21 36 -13 5 -47 -43 -17 1 42 62
58 60 95 85 146 101 44 13 160 10 224 -7z m-458 -210 c-9 -8 -16 -20 -16 -26
0 -6 -3 -9 -6 -6 -8 9 14 48 27 48 6 0 3 -7 -5 -16z m-9 -141 c9 -7 12 -19 8
-33 -6 -20 -8 -19 -26 15 -14 25 -17 43 -12 63 l8 27 3 -30 c2 -16 10 -35 19
-42z m0 -260 c-12 -12 -15 -12 -25 0 -9 10 -7 19 5 37 l16 23 9 -23 c6 -16 4
-28 -5 -37z m53 5 c0 -7 -4 -18 -8 -25 -11 -17 -36 1 -29 21 7 19 37 22 37 4z
m-127 -45 c-5 -12 -7 -12 -14 -1 -13 20 -11 28 5 22 8 -3 12 -12 9 -21z m188
-16 c-8 -8 -14 -8 -22 0 -7 7 -5 16 8 28 17 18 18 18 21 1 2 -10 -1 -23 -7
-29z m103 -6 c8 -12 -19 -45 -32 -38 -14 9 -3 47 14 47 7 0 15 -4 18 -9z m276
-41 c0 -10 -4 -21 -9 -25 -6 -3 -33 -50 -62 -105 -31 -57 -60 -101 -71 -103
-22 -6 -23 6 -3 23 20 16 19 49 0 57 -14 5 -14 8 2 25 21 23 8 51 -26 56 -13
2 -21 11 -21 22 0 10 -3 27 -6 37 -5 15 -4 16 6 3 10 -13 11 -11 7 8 -6 25 9
20 31 -10 7 -10 22 -18 33 -18 25 0 71 23 88 44 16 19 31 12 31 -14z m-220
-119 c-11 -22 -35 -28 -45 -11 -4 6 -3 10 2 9 21 -4 32 3 39 24 4 12 9 17 11
10 2 -7 -1 -21 -7 -32z m-344 17 c4 -7 3 -8 -5 -4 -7 4 -15 -2 -20 -16 -6 -14
-10 -17 -10 -7 -1 8 4 20 11 27 15 15 15 15 24 0z m21 -10 c-3 -8 -6 -5 -6 6
-1 11 2 17 5 13 3 -3 4 -12 1 -19z m383 7 c0 -3 -6 -14 -12 -25 -10 -16 -10
-24 1 -41 12 -20 11 -21 -7 -17 -18 5 -20 2 -15 -28 5 -29 3 -34 -13 -34 -11
0 -26 9 -34 21 -8 12 -24 24 -35 29 -17 6 -15 9 18 25 20 9 44 14 53 11 14 -5
15 -4 5 8 -17 20 -4 56 20 56 10 0 19 -2 19 -5z m-160 -30 c0 -26 -14 -33 -26
-13 -4 6 -2 14 4 16 7 2 10 8 6 13 -3 5 0 9 5 9 6 0 11 -11 11 -25z m-253 -7
c-3 -8 -6 -5 -6 6 -1 11 2 17 5 13 3 -3 4 -12 1 -19z m123 -2 c0 -13 -6 -26
-12 -29 -7 -2 2 -4 21 -5 19 0 38 -7 43 -14 7 -10 8 -8 4 5 -4 14 1 17 28 17
19 0 41 3 49 6 12 4 14 0 10 -15 -3 -13 2 -24 16 -33 33 -20 25 -28 -22 -22
-36 5 -51 2 -83 -19 -27 -17 -60 -27 -106 -32 -101 -10 -119 7 -102 93 6 28 8
30 32 21 14 -5 31 -8 38 -5 7 3 15 0 17 -7 6 -16 47 26 47 48 0 8 5 15 10 15
6 0 10 -11 10 -24z m40 -1 c0 -26 -14 -33 -25 -15 -9 14 1 40 15 40 5 0 10
-11 10 -25z m48 2 c2 -10 -3 -17 -12 -17 -10 0 -16 9 -16 21 0 24 23 21 28 -4z
m66 8 c3 -8 1 -15 -4 -15 -6 0 -10 7 -10 15 0 8 2 15 4 15 2 0 6 -7 10 -15z
m-236 -12 c-5 -25 -28 -28 -28 -4 0 12 6 21 16 21 9 0 14 -7 12 -17z m40 -8
c-12 -27 -28 -24 -28 6 0 12 7 19 20 19 17 0 18 -3 8 -25z m167 -105 c-11 -5
-27 -9 -35 -9 -13 -1 -13 0 0 9 8 5 24 9 35 9 l20 0 -20 -9z m279 -11 c35 -28
51 -66 35 -86 -10 -11 -15 -6 -30 27 -26 57 -54 68 -127 46 -52 -16 -61 -16
-92 -3 l-35 15 60 2 c33 1 71 6 85 10 44 14 77 11 104 -11z m-334 -38 c-5 -11
-10 -29 -10 -40 0 -24 -18 -28 -26 -6 -11 27 5 65 27 65 16 0 18 -3 9 -19z
m295 5 c17 -12 16 -14 -19 -26 -29 -9 -41 -9 -49 0 -9 9 -7 15 7 26 25 18 37
18 61 0z m-189 -10 c10 -8 16 -18 12 -22 -9 -9 -88 16 -88 28 0 13 55 9 76 -6z
m80 -15 c-4 -5 0 -12 6 -15 7 -3 -2 -4 -21 -3 -45 3 -55 27 -11 27 17 0 29 -4
26 -9z m-490 -89 c22 6 76 8 124 5 47 -3 74 -3 61 1 -13 4 169 7 405 7 236 -1
434 3 440 7 8 6 13 -1 17 -18 l5 -27 -244 6 c-134 4 -249 8 -256 9 -6 2 -20
-13 -29 -32 -14 -27 -17 -58 -16 -137 1 -57 5 -103 10 -103 12 0 8 -78 -5 -82
-6 -2 -13 -32 -16 -67 -5 -71 -21 -65 -22 9 0 28 -3 40 -9 32 -6 -10 -10 -4
-15 18 -10 53 -7 80 9 80 10 0 15 10 15 30 0 17 -4 30 -10 30 -13 0 -13 36 2
76 9 25 9 45 -1 88 -7 31 -16 58 -21 61 -4 3 -6 -5 -3 -17 4 -20 3 -21 -7 -6
-10 17 -30 17 -264 11 l-254 -6 6 28 5 28 17 -21 c16 -19 22 -20 56 -10z m98
-57 c12 -12 13 -21 6 -35 -5 -10 -15 -31 -21 -47 l-11 -28 -14 46 c-8 26 -20
49 -27 52 -10 4 -9 -5 5 -31 10 -20 18 -45 17 -57 0 -11 -7 -1 -17 25 -12 32
-27 50 -50 62 -49 24 -48 25 27 27 52 1 73 -2 85 -14z m149 -10 c15 -17 44
-30 92 -42 81 -19 104 -33 54 -33 -78 0 -189 51 -189 86 0 21 18 17 43 -11z
m517 12 c0 -35 -78 -73 -167 -83 -73 -8 -62 11 15 26 60 11 111 35 119 56 7
18 33 19 33 1z m257 7 c-3 -3 -20 -13 -39 -22 -27 -14 -37 -28 -53 -77 -27
-76 -37 -98 -30 -62 4 19 -3 48 -20 84 -14 31 -24 57 -23 58 23 17 54 24 107
25 35 0 62 -3 58 -6z m-570 -26 c-3 -8 -6 -5 -6 6 -1 11 2 17 5 13 3 -3 4 -12
1 -19z m-280 -35 c-2 -48 -2 -48 45 -71 26 -13 68 -27 95 -32 l48 -8 -41 -1
c-107 -3 -199 68 -174 134 15 40 28 29 27 -22z m663 5 c0 -55 -98 -119 -180
-117 l-45 1 54 9 c30 5 73 19 95 32 38 21 41 25 44 72 3 46 5 48 18 31 8 -11
14 -24 14 -28z m-373 -10 c-3 -8 -6 -5 -6 6 -1 11 2 17 5 13 3 -3 4 -12 1 -19z
m-337 -81 c0 -53 54 -92 148 -107 l57 -9 -75 3 c-93 3 -136 24 -148 69 -9 37
-4 79 9 71 5 -3 9 -15 9 -27z m741 -35 c-14 -52 -55 -74 -145 -78 l-71 -4 63
14 c74 18 120 47 128 84 12 54 14 59 25 40 6 -12 6 -31 0 -56z m-792 3 c0 -5
-4 -3 -9 5 -5 8 -9 22 -9 30 0 16 17 -16 18 -35z m294 -72 c-7 -2 -19 -2 -25
0 -7 3 -2 5 12 5 14 0 19 -2 13 -5z m270 0 c-7 -2 -19 -2 -25 0 -7 3 -2 5 12
5 14 0 19 -2 13 -5z m227 -29 c0 -9 -15 -31 -34 -50 -41 -41 -88 -45 -151 -14
-22 11 -32 18 -21 15 87 -25 105 -27 132 -13 16 7 38 28 49 45 23 37 25 39 25
17z m-465 -24 c-3 -5 -12 -10 -18 -10 -7 0 -6 4 3 10 19 12 23 12 15 0z m190
0 c13 -6 15 -9 5 -9 -8 0 -22 4 -30 9 -18 12 -2 12 25 0z m300 -162 c-7 -24
-49 -68 -65 -68 -5 0 5 13 21 29 16 16 29 37 29 45 0 9 5 16 11 16 6 0 8 -9 4
-22z m-88 -74 c-3 -3 -12 -4 -19 -1 -8 3 -5 6 6 6 11 1 17 -2 13 -5z"/>
<path d="M3443 4110 c-27 -11 -42 -38 -64 -115 -9 -33 -22 -59 -28 -57 -6 1
-11 -4 -11 -12 0 -8 -9 -35 -19 -60 -16 -36 -30 -50 -68 -70 -26 -14 -44 -25
-39 -26 15 0 100 42 108 54 4 6 8 -2 8 -19 0 -40 8 -48 54 -66 34 -12 45 -24
71 -77 48 -98 64 -102 137 -34 73 67 108 119 107 156 l-1 31 -9 -33 c-13 -44
-108 -142 -138 -142 -16 0 -26 10 -36 34 -13 32 -37 55 -101 100 -25 17 -26
22 -19 70 4 28 10 91 13 139 7 83 9 90 37 113 32 26 32 28 -2 14z"/>
<path d="M3151 4087 c-13 -6 -31 -23 -39 -37 l-16 -25 30 26 c16 15 38 31 49
37 28 16 6 15 -24 -1z"/>
<path d="M3218 4076 c13 -7 46 -39 73 -70 27 -32 49 -53 49 -46 0 17 -114 130
-130 130 -9 -1 -5 -6 8 -14z"/>
<path d="M3570 4066 c0 -2 8 -10 18 -17 15 -13 16 -12 3 4 -13 16 -21 21 -21
13z"/>
<path d="M3148 4048 c-30 -24 -58 -83 -58 -124 0 -32 7 -47 32 -73 29 -30 36
-32 73 -26 22 3 59 17 83 31 54 32 56 63 7 128 -51 66 -103 90 -137 64z m98
-40 c23 -26 24 -28 4 -12 -14 12 -34 26 -45 32 -15 9 -16 11 -4 12 8 0 28 -15
45 -32z"/>
<path d="M3050 3951 c-5 -11 -9 -35 -9 -53 1 -32 2 -32 8 7 4 22 10 46 14 53
5 6 6 12 3 12 -3 0 -10 -9 -16 -19z"/>
<path d="M2864 3735 c-4 -8 -9 -13 -13 -11 -3 2 -7 -7 -7 -21 -2 -23 -1 -23
10 -6 16 22 27 53 20 53 -2 0 -7 -7 -10 -15z"/>
<path d="M3201 2814 c0 -11 3 -14 6 -6 3 7 2 16 -1 19 -3 4 -6 -2 -5 -13z"/>
<path d="M3664 3062 c-6 -4 -14 -23 -18 -42 -3 -19 -3 -28 0 -20 4 8 13 27 21
43 14 29 14 31 -3 19z"/>
<path d="M1975 4220 c-129 -9 -223 -25 -365 -60 -157 -39 -241 -70 -405 -150
-230 -112 -386 -224 -570 -407 -379 -377 -590 -856 -620 -1409 -8 -132 -2
-184 21 -184 11 0 14 26 14 140 0 862 591 1666 1425 1939 226 74 405 101 660
101 225 0 457 -36 627 -96 51 -18 68 -18 68 -1 0 15 -156 63 -290 91 -170 35
-396 49 -565 36z"/>
<path d="M1921 4139 c-615 -65 -1163 -404 -1511 -934 -162 -248 -277 -584
-310 -904 -12 -127 -13 -291 -1 -291 38 0 41 11 41 126 0 510 210 1005 584
1380 524 524 1278 713 1984 498 69 -21 86 -24 93 -12 15 23 5 30 -88 59 -250
76 -535 104 -792 78z"/>
<path d="M1628 3952 c-76 -20 -138 -40 -138 -44 0 -4 9 -17 20 -28 23 -23 52
-126 44 -157 -4 -13 3 -33 17 -52 18 -25 23 -46 24 -94 1 -47 5 -62 16 -61 24
2 274 67 281 73 8 7 -20 111 -30 111 -3 0 -15 -9 -26 -19 -17 -16 -135 -56
-142 -48 -1 1 -5 16 -8 34 -7 30 -6 32 28 39 43 7 42 6 50 66 l7 46 -57 -14
c-31 -9 -58 -13 -60 -11 -2 2 -7 17 -10 35 -6 29 -4 31 37 43 24 7 66 12 92
11 48 -1 49 -1 43 25 -4 14 -10 38 -13 54 -3 18 -12 29 -22 28 -9 0 -78 -17
-153 -37z"/>
<path d="M2540 3883 c-6 -32 -18 -87 -26 -123 -8 -36 -14 -78 -14 -94 0 -16
-4 -45 -10 -65 -5 -20 -12 -67 -16 -105 -4 -53 -8 -66 -16 -52 -5 9 -8 34 -7
54 2 20 -2 62 -9 92 -6 30 -18 102 -27 159 -18 117 -37 171 -59 171 -8 0 -17
-13 -21 -28 -6 -28 12 -288 21 -303 2 -4 0 -10 -5 -13 -5 -4 -12 -2 -16 4 -11
17 -54 11 -65 -10 -8 -15 -15 -18 -34 -10 -40 15 -55 -6 -60 -82 -2 -44 1 -76
10 -94 8 -14 14 -32 14 -38 0 -7 11 -34 24 -62 13 -27 27 -74 30 -104 7 -53 9
-57 50 -79 26 -15 52 -22 65 -18 11 3 21 1 21 -4 0 -5 -8 -9 -19 -9 -37 0 -45
-24 -32 -104 8 -47 10 -116 5 -192 -5 -84 -3 -116 4 -109 14 13 20 252 8 328
-7 48 -6 57 6 57 25 0 28 -35 21 -204 -5 -120 -3 -157 5 -152 8 5 12 41 13 99
1 96 9 86 24 -27 4 -27 10 -45 15 -40 5 5 0 71 -11 149 -28 193 -28 189 -3
193 20 3 21 -2 28 -120 8 -146 15 -198 27 -198 5 0 7 24 3 53 -12 111 -19 287
-11 287 4 0 12 12 18 28 26 63 35 74 76 92 38 17 43 23 43 51 0 22 -10 43 -35
70 -38 43 -38 36 -15 204 5 39 14 123 20 188 6 65 11 122 11 125 1 4 1 26 0
50 -1 34 -4 42 -20 42 -16 0 -22 -11 -31 -57z m30 2 c0 -14 -4 -25 -9 -25 -4
0 -6 11 -3 25 2 14 6 25 8 25 2 0 4 -11 4 -25z m-198 -24 c1 -13 -3 -26 -9
-28 -9 -3 -13 7 -13 33 0 41 16 37 22 -5z m192 -84 c-4 -29 -12 -47 -20 -47
-9 0 -12 9 -9 28 3 15 7 38 9 52 3 14 5 27 5 30 1 2 6 -1 11 -6 6 -6 7 -30 4
-57z m-170 -14 c5 -38 4 -43 -13 -43 -15 0 -20 9 -23 45 -2 25 1 47 7 49 16 6
22 -6 29 -51z m159 -125 c-3 -40 -7 -75 -9 -76 -1 -2 -12 -1 -24 3 -15 5 -19
12 -15 23 4 10 9 41 12 70 5 41 9 52 24 52 16 0 17 -7 12 -72z m-143 30 c0
-18 4 -50 9 -70 8 -34 7 -37 -16 -43 -14 -3 -26 -5 -28 -3 -1 2 -5 36 -9 76
-6 72 -6 72 19 72 21 0 25 -5 25 -32z m-80 -122 c0 -13 3 -31 6 -40 5 -13 -1
-16 -25 -16 -28 0 -31 3 -31 33 0 38 6 47 32 47 12 0 18 -7 18 -24z m-90 -49
l6 -47 -33 0 c-30 0 -33 2 -23 19 5 11 10 30 10 44 0 58 33 45 40 -16z m296
19 c-3 -11 -6 -45 -6 -73 0 -55 -4 -61 -31 -40 -14 10 -15 22 -7 78 9 59 12
66 30 61 14 -3 18 -10 14 -26z m-101 -44 c1 -34 -1 -62 -5 -62 -18 0 -40 33
-40 58 0 15 -5 34 -10 42 -7 11 -4 17 13 21 35 11 38 7 42 -59z m-46 -120 c1
-7 -3 -11 -7 -8 -14 9 -34 114 -26 138 6 18 11 8 20 -47 7 -38 13 -76 13 -83z
m-51 71 c9 -42 9 -50 -8 -67 -17 -18 -18 -17 -29 33 -15 70 -14 81 7 81 14 0
21 -12 30 -47z m-95 0 c7 -7 -21 -43 -33 -43 -10 0 -20 37 -12 44 7 8 37 7 45
-1z m34 -25 c-3 -8 -6 -5 -6 6 -1 11 2 17 5 13 3 -3 4 -12 1 -19z m217 -19 c6
-5 2 -11 -8 -15 -16 -6 -72 12 -81 26 -7 11 77 0 89 -11z m-210 -70 c8 -18
-20 -47 -33 -33 -4 5 -14 24 -21 42 -11 29 -10 35 5 52 18 20 19 20 30 -12 7
-18 15 -40 19 -49z m155 37 c9 -10 9 -20 0 -40 -17 -38 -29 -32 -29 14 0 42 9
50 29 26z m146 -71 c0 -23 -32 -12 -59 21 -23 28 -26 37 -16 50 11 13 17 10
44 -23 17 -20 31 -42 31 -48z m-210 26 l7 -34 -31 23 c-31 21 -31 23 -15 41
21 23 29 16 39 -30z m125 -11 c0 -5 -4 -10 -10 -10 -5 0 -10 5 -10 10 0 6 5
10 10 10 6 0 10 -4 10 -10z m-43 -25 c-4 -8 -11 -15 -17 -15 -6 0 -6 7 2 20
14 22 24 19 15 -5z m-130 -12 c-8 -7 -37 9 -31 19 3 5 12 4 20 -3 8 -6 13 -14
11 -16z m227 -7 l27 -14 -32 -11 c-27 -9 -35 -8 -51 5 -10 10 -18 21 -18 26 0
13 45 9 74 -6z m-144 -50 c0 -40 -8 -47 -38 -39 -17 4 -22 13 -22 39 0 31 3
34 30 34 28 0 30 -3 30 -34z m27 12 c-3 -8 -6 -5 -6 6 -1 11 2 17 5 13 3 -3 4
-12 1 -19z m58 -27 c-20 -21 -43 -7 -38 23 5 25 6 25 28 8 20 -14 21 -19 10
-31z m-165 15 c0 -31 -8 -36 -37 -25 -27 10 -30 36 -5 42 35 9 42 6 42 -17z
m150 -61 c0 -21 -27 -37 -56 -33 -28 3 -47 28 -21 28 8 0 17 9 20 20 5 18 8
19 31 9 14 -7 26 -18 26 -24z m-180 5 c0 -5 -4 -10 -9 -10 -6 0 -13 5 -16 10
-3 6 1 10 9 10 9 0 16 -4 16 -10z m70 -21 c0 -20 -8 -23 -34 -13 -19 7 -21 31
-3 37 20 7 37 -4 37 -24z"/>
<path d="M1302 3834 c-34 -19 -62 -39 -62 -44 0 -4 11 -17 24 -27 14 -10 44
-51 66 -92 39 -69 42 -77 35 -127 l-6 -54 -49 25 c-41 21 -54 35 -89 99 -22
41 -41 84 -41 95 0 50 -9 52 -73 16 -65 -36 -83 -63 -48 -72 25 -6 81 -105 81
-143 0 -25 10 -32 108 -77 l107 -51 50 29 50 28 14 116 14 116 -30 27 c-40 35
-73 96 -73 132 0 16 -4 31 -8 34 -4 2 -36 -11 -70 -30z"/>
<path d="M2032 3848 c-18 -18 -15 -43 8 -63 17 -15 24 -16 45 -7 43 20 28 82
-20 82 -12 0 -26 -5 -33 -12z"/>
<path d="M1900 3505 c-299 -51 -549 -182 -771 -404 -178 -178 -281 -351 -354
-591 -33 -111 -41 -161 -22 -154 9 3 24 41 37 92 133 533 588 946 1132 1027
54 8 115 15 137 15 25 0 41 5 45 15 4 12 -6 15 -62 14 -37 -1 -101 -7 -142
-14z"/>
<path d="M738 3416 c-74 -80 -77 -85 -71 -122 4 -27 18 -52 48 -84 24 -25 45
-54 47 -65 2 -12 13 -21 28 -23 30 -4 100 -69 100 -93 0 -9 6 -21 13 -27 9 -8
24 3 60 44 50 55 53 74 13 74 -12 0 -33 11 -45 24 l-23 25 47 50 c46 50 49 51
67 34 11 -10 26 -32 33 -50 8 -18 18 -33 23 -33 5 0 30 24 56 54 l46 54 -32
11 c-41 15 -86 57 -103 99 -10 23 -20 32 -37 32 -15 0 -39 16 -63 40 -34 35
-45 40 -85 40 -45 0 -48 -2 -122 -84z m192 -91 c0 -6 -19 -29 -42 -52 l-43
-42 -45 39 -45 39 50 50 49 51 38 -37 c21 -20 38 -42 38 -48z"/>
<path d="M3735 3459 c-4 -10 16 -45 57 -100 167 -221 294 -492 358 -759 33
-139 33 -141 48 -131 11 7 8 30 -14 122 -59 249 -163 488 -303 695 -105 156
-138 194 -146 173z"/>
<path d="M3678 3393 c-16 -15 -14 -20 27 -73 33 -43 52 -59 74 -62 19 -3 28
-1 24 6 -6 11 -90 124 -103 138 -3 5 -13 0 -22 -9z"/>
<path d="M2027 3289 c-118 -48 -238 -143 -472 -375 -244 -243 -385 -344 -478
-344 -65 0 -81 28 -62 107 6 26 4 34 -9 39 -28 11 -56 -24 -56 -70 0 -93 70
-140 172 -116 51 13 166 82 253 154 28 22 136 126 240 231 236 237 348 322
478 364 20 7 37 17 37 22 0 15 -52 9 -103 -12z"/>
<path d="M1662 3268 c6 -18 28 -21 28 -4 0 9 -7 16 -16 16 -9 0 -14 -5 -12
-12z"/>
<path d="M2075 3231 c-90 -42 -256 -184 -330 -283 -98 -131 -140 -250 -133
-383 7 -134 64 -232 164 -281 88 -43 187 -28 283 44 45 33 85 121 78 172 -13
100 -74 162 -165 168 -71 4 -119 -19 -145 -70 -20 -41 -14 -68 17 -68 27 0 46
18 46 42 0 39 89 65 137 39 55 -29 69 -142 27 -207 -42 -65 -86 -89 -164 -89
-56 0 -73 4 -108 28 -131 86 -159 305 -63 496 71 140 222 286 379 365 81 41
61 66 -23 27z"/>
<path d="M2135 3168 c-61 -32 -165 -141 -165 -172 0 -48 34 -31 106 52 36 42
79 87 95 100 53 43 31 55 -36 20z"/>
<path d="M1414 3115 c-4 -9 0 -23 8 -31 20 -20 50 -7 46 20 -4 26 -45 35 -54
11z"/>
<path d="M3886 3081 c4 -32 25 -92 50 -145 43 -91 114 -290 114 -319 0 -15 49
-61 57 -53 7 7 -26 126 -63 231 -38 106 -122 287 -148 320 -15 19 -16 17 -10
-34z"/>
<path d="M2186 3098 c-24 -39 -28 -64 -11 -78 23 -19 36 -1 42 54 6 51 -7 61
-31 24z"/>
<path d="M457 3038 c-15 -35 -27 -66 -27 -70 0 -5 16 -8 35 -8 28 0 103 -27
123 -45 6 -5 -52 -115 -60 -115 -20 0 -104 50 -116 69 -7 12 -16 21 -20 21
-12 0 -65 -128 -57 -140 3 -5 17 -7 29 -4 27 7 124 -39 144 -67 8 -11 25 -19
43 -19 38 0 105 -34 119 -60 18 -34 36 -22 64 41 28 65 27 82 -8 77 -12 -1
-41 6 -64 16 l-41 18 27 57 c15 31 28 58 29 60 6 10 84 -34 98 -55 9 -13 19
-24 24 -24 8 0 61 113 61 131 0 5 -13 9 -30 9 -39 0 -118 39 -126 62 -4 13
-15 18 -40 18 -42 0 -129 42 -144 70 -18 34 -34 23 -63 -42z"/>
<path d="M1207 2923 c-15 -14 -7 -63 12 -73 39 -20 82 22 61 60 -10 20 -58 28
-73 13z"/>
<path d="M2605 2722 c-139 -47 -309 -166 -364 -256 -28 -45 -28 -100 1 -120
43 -30 106 -16 193 44 l45 31 0 -68 c0 -37 5 -169 11 -293 10 -178 9 -244 0
-314 -14 -98 -9 -111 39 -99 43 10 71 33 91 76 18 40 18 62 13 397 -4 215 -11
369 -18 390 -10 30 -16 35 -46 38 -37 3 -36 4 -179 -107 -69 -53 -91 -63 -111
-51 -9 6 -8 16 5 45 40 82 252 214 360 223 73 6 133 -17 180 -69 74 -82 100
-182 100 -379 -1 -125 -5 -160 -29 -254 -65 -254 -161 -405 -301 -471 -70 -33
-164 -44 -220 -25 -54 18 -109 72 -135 132 -17 40 -22 70 -22 132 1 71 5 89
34 146 48 93 121 136 162 95 9 -9 20 -34 26 -55 13 -49 40 -55 40 -10 0 70
-55 140 -109 140 -43 0 -125 -47 -171 -96 -118 -128 -126 -307 -19 -428 117
-134 311 -150 532 -46 60 28 184 144 243 226 58 81 126 228 153 330 26 100 29
294 6 393 -65 274 -259 389 -510 303z"/>
<path d="M3956 2517 c-15 -11 -16 -19 -7 -57 18 -80 13 -143 -20 -232 -47
-127 -88 -208 -106 -208 -14 0 -15 14 -9 123 3 67 9 156 12 198 5 60 3 82 -10
108 -20 37 -54 56 -88 48 -22 -6 -23 -9 -24 -129 0 -101 -4 -135 -23 -193 -37
-110 -82 -198 -94 -186 -5 5 -13 55 -16 110 -5 78 -10 103 -25 120 -13 14 -15
21 -6 21 9 0 11 13 8 50 -6 60 -45 116 -96 137 -124 52 -278 -147 -307 -393
-12 -110 32 -194 102 -194 67 0 113 39 168 141 27 50 35 58 35 39 1 -37 35
-107 60 -120 46 -25 121 36 155 124 21 53 30 52 38 -5 7 -53 31 -79 73 -79 49
0 88 40 140 143 l46 92 -4 -91 -4 -90 -61 -85 c-109 -150 -156 -269 -157 -391
-1 -63 3 -81 20 -105 49 -65 116 -68 183 -8 79 71 123 229 141 500 8 105 16
165 24 175 23 25 62 110 95 203 36 104 37 107 13 107 -14 0 -23 -15 -36 -61
-9 -33 -31 -91 -48 -127 l-32 -67 -7 110 c-3 61 -7 136 -8 168 -1 50 -5 63
-30 88 -31 31 -66 37 -95 16z m-478 -170 c12 -13 26 -44 31 -70 l8 -46 -31 -3
c-27 -3 -31 -7 -37 -44 -4 -23 -21 -76 -38 -119 -44 -114 -103 -166 -131 -116
-38 72 47 367 118 405 38 21 55 19 80 -7z m457 -569 c-22 -152 -39 -222 -68
-277 -19 -38 -28 -46 -52 -46 -23 0 -30 6 -37 30 -12 44 17 177 58 260 41 83
106 175 112 157 2 -6 -4 -62 -13 -124z"/>
<path d="M1180 2476 c-141 -42 -243 -95 -575 -296 -239 -145 -365 -209 -475
-239 -53 -15 -78 -18 -97 -10 -31 11 -41 4 -27 -18 16 -25 61 -35 133 -28 95
9 205 49 343 125 l123 68 7 -132 c15 -279 -20 -615 -78 -760 -66 -165 -199
-248 -300 -185 -47 29 -88 116 -92 199 -9 156 106 336 195 304 36 -12 69 -73
86 -155 9 -43 18 -64 27 -64 23 0 16 103 -11 164 -59 137 -188 167 -296 68
-110 -101 -139 -279 -68 -423 28 -58 73 -102 138 -136 60 -33 191 -32 259 1
145 70 229 219 263 466 18 126 27 645 13 695 -7 23 -1 29 75 72 l82 47 9 -37
c6 -23 5 -145 -3 -322 -12 -292 -10 -352 17 -405 19 -38 40 -54 73 -55 36 0
39 5 22 58 -28 91 4 239 90 408 26 52 62 91 70 77 3 -4 -4 -57 -14 -118 -39
-229 -36 -325 14 -360 30 -21 80 -19 111 6 22 17 76 116 101 184 5 16 11 7 26
-42 35 -112 113 -150 214 -104 78 35 127 114 185 298 30 95 34 143 10 128 -5
-3 -22 -45 -36 -93 -65 -215 -136 -309 -200 -267 -23 14 -44 69 -44 112 0 14
13 29 38 44 54 32 121 98 143 141 35 69 20 152 -37 197 -95 75 -221 -6 -268
-174 -63 -223 -122 -375 -146 -375 -29 0 -31 55 -10 231 23 193 19 248 -21
269 -59 32 -130 -33 -194 -176 l-26 -59 5 175 c2 96 2 187 -1 202 -7 37 -39
68 -71 68 -26 1 -27 1 -7 16 11 9 79 45 151 81 157 77 229 91 276 54 72 -58
49 -226 -35 -255 -37 -13 -91 16 -125 67 -24 36 -42 43 -49 21 -6 -17 40 -77
76 -101 133 -90 301 34 277 204 -8 58 -46 108 -106 140 -56 30 -139 30 -240
-1z m528 -485 c15 -43 -1 -91 -45 -136 -34 -35 -90 -75 -105 -75 -10 0 18 108
42 165 41 97 84 115 108 46z"/>
<path d="M3265 2470 c-11 -5 -35 -9 -53 -9 -22 -1 -32 -5 -30 -13 8 -23 52
-19 83 7 32 26 32 29 0 15z"/>
<path d="M426 2437 c-12 -9 -17 -23 -14 -42 2 -25 8 -31 33 -33 19 -3 33 2 42
14 17 24 17 30 -7 54 -24 24 -30 24 -54 7z"/>
<path d="M4216 2118 c-2 -13 -9 -87 -15 -165 -67 -862 -664 -1599 -1491 -1838
-657 -189 -1345 -53 -1885 375 -94 74 -251 231 -320 318 -42 55 -75 78 -75 54
0 -4 25 -39 56 -78 649 -800 1783 -1017 2674 -513 408 231 732 593 913 1020
100 235 146 436 154 677 3 94 3 172 0 172 -4 0 -9 -10 -11 -22z"/>
<path d="M2002 2108 c-21 -21 -14 -57 13 -70 22 -10 29 -9 47 10 19 18 20 25
10 47 -13 27 -49 34 -70 13z"/>
<path d="M3475 1818 c-2 -7 -9 -33 -15 -58 -32 -126 -114 -308 -189 -418 -283
-415 -773 -648 -1264 -602 -325 31 -600 156 -831 380 -54 52 -121 125 -148
163 -32 42 -58 67 -70 67 -17 0 -15 -5 14 -46 213 -298 521 -499 881 -575 122
-26 365 -31 492 -10 307 51 579 193 793 416 143 148 246 310 313 490 29 77 58
192 51 199 -9 10 -22 7 -27 -6z"/>
<path d="M44 1768 c3 -24 14 -78 23 -121 14 -67 18 -76 30 -64 12 12 12 22 -1
73 -8 32 -18 80 -21 107 -5 32 -12 47 -22 47 -13 0 -14 -8 -9 -42z"/>
<path d="M120 1784 c0 -14 7 -56 16 -93 13 -61 17 -68 36 -63 17 4 19 10 14
44 -18 108 -27 138 -47 138 -14 0 -19 -7 -19 -26z"/>
<path d="M1971 1776 c-9 -10 -9 -16 -1 -21 17 -10 37 12 24 25 -8 8 -15 6 -23
-4z"/>
<path d="M3185 1593 l-89 -107 -13 34 c-8 19 -17 44 -22 55 -7 16 -25 -13 -95
-152 -47 -95 -83 -173 -78 -173 4 0 39 32 77 70 38 39 72 70 76 70 3 0 14 -28
24 -61 9 -34 20 -57 25 -53 5 5 50 99 100 209 50 109 94 203 96 207 3 4 1 8
-3 8 -5 0 -48 -48 -98 -107z"/>
<path d="M1861 1496 c-16 -20 -3 -46 24 -46 27 0 36 17 23 43 -10 20 -31 22
-47 3z"/>
<path d="M3983 1341 c-17 -14 -52 -66 -77 -116 -198 -395 -538 -726 -936 -913
-433 -203 -955 -243 -1406 -106 -370 111 -690 317 -932 599 -47 55 -87 101
-88 103 -1 2 -12 -1 -23 -8 -21 -11 -19 -14 39 -84 255 -309 619 -549 993
-656 209 -59 357 -80 579 -80 670 0 1291 329 1676 888 66 96 221 387 211 396
-2 2 -18 -8 -36 -23z"/>
<path d="M1460 1296 c0 -8 5 -18 10 -21 6 -3 10 -34 10 -69 0 -63 0 -63 44
-94 33 -24 43 -37 39 -52 -3 -12 1 -22 11 -26 18 -7 23 -69 6 -79 -5 -3 -10
-13 -10 -21 0 -11 16 -14 70 -14 54 0 70 3 70 14 0 8 -4 18 -10 21 -16 10 -12
72 5 79 8 3 15 16 15 29 0 17 12 33 40 52 40 27 40 28 40 91 0 34 5 66 10 69
6 3 10 13 10 21 0 11 -16 14 -70 14 -70 0 -86 -10 -59 -37 5 -5 9 -30 7 -53
-2 -33 -9 -48 -30 -63 l-28 -21 -27 21 c-22 15 -29 30 -31 63 -2 23 2 48 7 53
27 27 11 37 -59 37 -54 0 -70 -3 -70 -14z"/>
<path d="M1956 1276 c-21 -28 -26 -46 -26 -88 0 -30 -6 -60 -12 -66 -10 -10
-10 -17 0 -32 6 -11 12 -38 12 -60 0 -30 8 -51 28 -76 l27 -34 111 0 110 0 22
30 c15 20 22 44 22 73 0 27 6 49 15 57 8 7 15 18 15 25 0 7 -7 18 -15 25 -10
8 -15 31 -15 70 0 43 -5 64 -21 84 -20 25 -23 26 -134 26 l-113 0 -26 -34z
m204 -94 c0 -26 -5 -53 -12 -60 -9 -9 -9 -18 0 -37 7 -14 12 -39 12 -55 l0
-30 -65 0 -65 0 0 30 c0 16 5 41 12 55 9 19 9 28 0 37 -7 7 -12 34 -12 60 l0
48 65 0 65 0 0 -48z"/>
<path d="M2395 1288 c15 -45 17 -122 4 -160 -9 -29 -10 -41 -1 -50 7 -7 12
-32 12 -58 1 -33 7 -52 25 -72 23 -27 27 -28 134 -28 l110 0 25 33 c19 25 26
46 26 78 0 25 6 51 12 57 10 10 10 17 0 32 -14 24 -16 146 -2 155 6 3 10 13
10 21 0 11 -16 14 -70 14 -54 0 -70 -3 -70 -14 0 -8 5 -18 10 -21 14 -9 13
-138 -2 -153 -10 -10 -10 -17 0 -32 6 -11 12 -36 12 -55 l0 -35 -65 0 -65 0 0
34 c0 19 5 38 10 41 6 3 10 17 10 30 0 13 -4 27 -10 30 -5 3 -10 33 -10 65 0
32 5 62 10 65 6 3 10 15 10 26 0 17 -7 19 -66 19 -64 0 -66 -1 -59 -22z"/>
<path d="M3289 1178 c-116 -141 -115 -138 -98 -149 8 -5 22 -9 32 -9 26 0 105
-69 116 -102 7 -19 17 -28 32 -28 29 0 84 -43 101 -78 7 -15 19 -27 26 -27 6
0 54 52 106 115 l95 115 -42 36 c-44 39 -67 37 -67 -3 0 -11 -18 -42 -41 -69
-40 -48 -41 -49 -64 -31 -30 21 -30 25 -1 59 l24 27 -21 43 c-12 24 -24 42
-28 41 -4 -2 -22 -22 -41 -44 l-34 -41 -29 23 -28 22 42 51 c24 28 49 51 56
51 7 0 18 7 25 15 11 13 7 21 -26 50 -21 19 -42 34 -45 35 -4 0 -44 -46 -90
-102z"/>
<path d="M1272 1248 c-29 -29 -7 -78 35 -78 35 0 52 43 28 70 -20 23 -45 26
-63 8z"/>
<path d="M1027 1063 c-4 -3 -7 -15 -7 -25 0 -26 -66 -105 -102 -124 -17 -9
-28 -23 -28 -35 0 -28 -57 -96 -86 -103 -13 -4 -24 -12 -24 -19 0 -7 52 -55
115 -106 113 -92 115 -93 156 -86 30 5 50 17 72 42 17 19 41 39 54 44 14 5 23
17 23 30 0 12 18 44 40 71 31 39 40 59 40 89 0 36 -5 42 -117 133 -121 98
-125 101 -136 89z m117 -187 l39 -33 -28 -37 c-15 -20 -38 -39 -51 -42 -16 -4
-24 -13 -24 -28 0 -11 -11 -34 -24 -51 l-23 -29 -52 39 c-28 22 -51 42 -51 46
0 16 43 59 60 59 18 0 30 19 30 47 0 8 12 30 28 48 30 36 34 35 96 -19z"/>
<path d="M3090 968 c-56 -40 -70 -71 -35 -76 12 -2 42 -35 73 -78 47 -68 52
-80 52 -128 l0 -54 -48 15 c-41 13 -55 25 -100 88 -29 40 -52 81 -52 91 0 11
-5 26 -10 34 -7 12 -19 8 -66 -26 -32 -22 -60 -46 -62 -52 -2 -6 10 -18 26
-26 34 -18 85 -89 92 -130 5 -27 12 -32 116 -67 l112 -37 46 32 45 31 1 123
c0 119 -1 123 -23 131 -26 10 -102 115 -93 129 3 5 0 16 -7 24 -10 13 -19 10
-67 -24z"/>
<path d="M1369 798 c-1 -7 -1 -21 0 -30 4 -31 -49 -136 -71 -141 -16 -5 -19
-12 -15 -33 6 -34 -30 -122 -53 -129 -48 -15 -27 -34 108 -94 75 -34 141 -61
145 -61 12 0 49 89 42 100 -3 5 -20 9 -38 8 -25 -1 -105 30 -126 48 -2 2 2 17
9 33 12 30 13 30 41 16 40 -21 49 -19 86 16 l32 32 -54 26 -54 26 14 32 14 32
56 -24 c31 -14 67 -38 80 -53 l23 -27 26 55 c14 30 24 55 23 56 -6 6 -271 124
-278 124 -5 0 -10 -6 -10 -12z"/>
<path d="M2593 696 c-79 -28 -143 -54 -143 -57 0 -3 11 -18 24 -32 30 -33 59
-117 51 -150 -5 -18 -1 -28 14 -39 25 -17 54 -95 47 -123 -11 -42 6 -48 70
-24 32 12 63 25 67 29 5 4 -3 20 -17 35 -14 15 -26 31 -26 35 0 11 41 60 50
60 22 0 69 -52 67 -75 -1 -13 1 -24 6 -25 4 -1 39 9 77 21 75 24 88 43 43 60
-16 5 -51 33 -80 61 l-52 51 31 38 30 37 -20 53 c-15 41 -28 57 -58 74 l-39
22 -142 -51z m141 -71 c5 -21 -3 -38 -40 -86 -26 -33 -51 -56 -54 -52 -10 10
-43 113 -39 117 5 3 112 43 120 45 4 0 10 -10 13 -24z"/>
<path d="M1732 633 c-28 -24 -34 -38 -46 -105 l-13 -77 59 -22 c32 -12 65 -31
73 -41 10 -15 20 -18 42 -14 40 8 57 -5 49 -41 l-7 -29 -64 10 c-59 8 -65 11
-65 33 0 18 -9 28 -35 39 -53 22 -62 18 -67 -23 -6 -48 23 -111 55 -118 12 -2
64 -12 115 -20 l93 -16 33 28 c29 24 35 38 45 102 7 40 9 76 4 80 -4 4 -30 16
-58 26 -27 9 -57 27 -66 38 -11 14 -23 18 -39 14 -34 -9 -50 2 -50 34 0 32 14
35 95 21 33 -6 40 -11 40 -31 0 -18 10 -27 47 -41 46 -17 46 -17 52 4 16 58
-10 132 -49 141 -23 5 -197 35 -205 35 -3 0 -20 -12 -38 -27z"/>
<path d="M2238 626 c-69 -6 -130 -14 -134 -18 -3 -4 1 -23 10 -42 18 -39 21
-127 5 -157 -8 -16 -7 -25 5 -38 18 -20 25 -111 11 -150 l-8 -24 104 7 c57 4
128 10 157 13 l52 6 -1 41 c0 22 -3 49 -7 58 -7 16 -10 16 -36 3 -16 -8 -53
-18 -83 -22 -59 -7 -73 1 -73 45 0 19 5 22 40 22 42 0 49 8 66 75 6 25 6 25
-55 19 l-61 -7 0 35 c0 32 3 36 31 42 49 10 97 7 119 -6 28 -18 37 -2 32 60
-3 46 -6 52 -25 50 -12 0 -79 -6 -149 -12z"/>
</g>
</svg>
